<svg width="190" height="190" viewBox="0 0 190 190" fill="none" xmlns="http://www.w3.org/2000/svg">
<path d="M127.533 84.2077C127.594 84.243 127.632 84.3082 127.632 84.3788V108.27C127.632 108.423 127.467 108.518 127.335 108.442L106.553 96.4438L83.7902 83.3031C83.7288 83.2678 83.6914 83.2026 83.6914 83.1316V59.253C83.6914 59.1004 83.8562 59.0054 83.9882 59.0815L127.533 84.2077Z" fill="#1102E3" stroke="#030121" stroke-width="0.946903"/>
<path d="M171.314 58.2044C171.446 58.281 171.446 58.4714 171.314 58.5475L127.744 83.7048C127.683 83.7405 127.608 83.7405 127.546 83.7052L83.7075 58.4096C83.7054 58.4083 83.7041 58.4062 83.7041 58.4041C83.7041 58.402 83.7033 58.3999 83.7012 58.3986L40.0091 33.1876C39.8772 33.1114 39.8772 32.921 40.0091 32.8449L83.5982 7.67495C83.6595 7.6396 83.7348 7.6396 83.7962 7.67495L171.314 58.2044Z" fill="#9189FF" stroke="#030121" stroke-width="0.946903" stroke-miterlimit="10"/>
<path d="M83.7003 58.3989C83.7024 58.3998 83.7036 58.4019 83.7036 58.404C83.7036 58.4065 83.7024 58.4082 83.7003 58.4095L62.6775 70.5997C62.6759 70.6006 62.6742 70.601 62.6725 70.601C62.6708 70.601 62.6691 70.6006 62.6674 70.5997L62.6115 70.5695L18.9358 45.3545C18.8039 45.2784 18.8039 45.088 18.9358 45.0119L39.6126 33.0734C39.6738 33.0381 39.7492 33.038 39.8104 33.0734L83.7003 58.3989Z" stroke="#030121" stroke-width="0.946903" stroke-miterlimit="10"/>
<path d="M83.4062 58.5797C83.5378 58.5032 83.703 58.5986 83.703 58.7508V109.034C83.703 109.105 83.6656 109.17 83.6042 109.205L62.9081 121.156C62.7761 121.232 62.6113 121.137 62.6113 120.985V70.683C62.6113 70.6548 62.6256 70.6287 62.6492 70.6136L62.6672 70.6022C62.6685 70.6014 62.6706 70.601 62.6723 70.601C62.674 70.601 62.6756 70.6006 62.6769 70.5997L83.4062 58.5797Z" stroke="#030121" stroke-width="0.946903" stroke-miterlimit="10"/>
<path d="M62.5133 70.5117C62.5747 70.547 62.6125 70.6122 62.6125 70.6828V121.324C62.6125 121.326 62.6117 121.327 62.6109 121.329C62.6083 121.332 62.6083 121.336 62.6109 121.339C62.6117 121.34 62.6125 121.342 62.6125 121.343V171.744C62.6125 171.896 62.4473 171.991 62.3154 171.915L18.7386 146.758C18.6774 146.722 18.6396 146.657 18.6396 146.587V45.5254C18.6396 45.3729 18.8045 45.2779 18.9364 45.3539L62.5133 70.5117Z" stroke="#030121" stroke-width="0.946903" stroke-miterlimit="10"/>
<path d="M83.6837 133.497C83.6959 133.504 83.703 133.518 83.703 133.532V183.919C83.703 184.071 83.5382 184.167 83.4062 184.091L62.7105 172.145C62.6492 172.11 62.6113 172.044 62.6113 171.974V121.685C62.6113 121.532 62.7761 121.437 62.9081 121.513L83.6837 133.497Z" stroke="#030121" stroke-width="0.946903"/>
<path d="M127.197 108.268C127.334 108.343 127.334 108.539 127.197 108.614L83.7942 132.692C83.782 132.7 83.7673 132.7 83.7551 132.693L62.8164 121.09C62.8127 121.088 62.8105 121.084 62.8105 121.08C62.8105 121.076 62.8127 121.072 62.8164 121.071L83.7942 109.433L106.444 96.8657C106.504 96.8325 106.576 96.8325 106.636 96.8657L127.197 108.268Z" stroke="#030121" stroke-width="0.946903" stroke-miterlimit="10"/>
<path d="M171.7 82.56C171.7 82.631 171.662 82.6966 171.601 82.7319L127.941 107.939C127.809 108.015 127.645 107.919 127.645 107.767V83.8761C127.645 83.8055 127.682 83.7399 127.743 83.7046L171.315 58.5464C171.446 58.4703 171.611 58.5649 171.611 58.717L171.7 82.56Z" fill="#0B00A4" stroke="#030121" stroke-width="0.946903"/>
<path d="M171.891 133.345L127.645 158.887L83.7041 184.261V133.484L127.645 108.11L171.701 82.6748L171.891 133.345Z" stroke="#030121" stroke-width="0.946903" stroke-miterlimit="10"/>
</svg>
