<svg width="190" height="190" viewBox="0 0 190 190" fill="none" xmlns="http://www.w3.org/2000/svg">
<path d="M95.1909 32.291V63.6594L95.1875 32.291H95.1909Z" stroke="#030121" stroke-width="2" stroke-linecap="round" stroke-linejoin="round"/>
<path d="M95.1909 32.291V63.6594L95.1875 32.291H95.1909Z" stroke="#030121" stroke-width="2" stroke-linecap="round" stroke-linejoin="round"/>
<path d="M149.395 126.401L95.1911 157.773L40.9844 126.401L95.1882 95.0293H95.1911L149.395 126.401Z" stroke="#030121" stroke-width="2" stroke-linecap="round" stroke-linejoin="round"/>
<path opacity="0.17" d="M95.1891 63.6594L95.1862 95.0296L40.9824 126.401V63.6594L95.1862 32.291L95.1891 63.6594Z" stroke="#030121" stroke-width="2" stroke-linecap="round" stroke-linejoin="round"/>
<path d="M166.356 53.8465L149.395 63.66L95.1913 32.2917H95.1879L40.9843 63.66L24.0234 53.8465L95.1879 12.6582H95.1913L166.356 53.8465Z" stroke="#030121" stroke-width="2" stroke-linecap="round" stroke-linejoin="round"/>
<path d="M149.394 63.6594V126.401L95.1904 95.0296V32.291L149.394 63.6594Z" stroke="#030121" stroke-width="2" stroke-linecap="round" stroke-linejoin="round"/>
<path d="M166.355 53.8467V136.218L95.1904 177.405V157.773L149.394 126.401V63.6598L166.355 53.8467Z" stroke="#030121" stroke-width="2" stroke-linecap="round" stroke-linejoin="round"/>
<path d="M95.1891 63.6594L95.1862 95.0296L40.9824 126.401V63.6594L95.1862 32.291L95.1891 63.6594Z" stroke="#030121" stroke-width="2" stroke-linecap="round" stroke-linejoin="round"/>
<path d="M95.1913 157.772V177.404L24.0234 136.217V53.8457L40.9843 63.6589V126.4L95.1913 157.772Z" stroke="#030121" stroke-width="2" stroke-linecap="round" stroke-linejoin="round"/>
<path d="M95.0784 59.5625L64.332 77.3061L95.0784 93.369L125.824 77.3061L95.0784 59.5625Z" fill="#9189FF" stroke="#030121" stroke-width="2" stroke-linecap="round" stroke-linejoin="round"/>
<path d="M64.6393 77.4665C64.4998 77.3934 64.332 77.4951 64.332 77.6532V112.577C64.332 112.651 64.372 112.721 64.4367 112.758L94.7627 130.33C94.9027 130.411 95.0784 130.311 95.0784 130.148V93.4967C95.0784 93.4181 95.0347 93.3467 94.9653 93.3101L64.6393 77.4665Z" fill="#1102E3" stroke="#030121" stroke-width="2"/>
<path d="M125.518 77.4665C125.657 77.3934 125.825 77.4951 125.825 77.6532V112.544C125.825 112.619 125.785 112.688 125.72 112.725L95.3944 130.297C95.2544 130.379 95.0791 130.278 95.0791 130.115V93.4967C95.0791 93.4181 95.1224 93.3467 95.1918 93.3101L125.518 77.4665Z" fill="#0B00A4" stroke="#030121" stroke-width="2"/>
</svg>
