<svg width="190" height="190" viewBox="0 0 190 190" fill="none" xmlns="http://www.w3.org/2000/svg">
<path d="M180.946 45.3789L180.947 45.3802V85.0716L180.946 85.0745L180.945 85.0751L164.506 94.5651C164.173 94.7575 163.756 94.517 163.756 94.1321V55.5908C163.756 55.4121 163.851 55.2471 164.006 55.1578L180.945 45.3791L180.946 45.3789Z" fill="#0B00A4" stroke="#030121" stroke-width="1.5"/>
<path d="M146.566 65.2273V144.619L137.968 139.655V70.1881H137.966L77.8105 35.4561V25.5312L94.9986 35.4544V35.4561L112.188 45.3792L129.376 55.3024V55.3041H129.378L146.563 65.2257L146.566 65.2273Z" stroke="#030121" stroke-width="1.5" stroke-linecap="round" stroke-linejoin="round"/>
<path d="M180.194 44.946C180.528 45.1384 180.528 45.6196 180.194 45.812L164.005 55.1579C163.85 55.2472 163.659 55.2472 163.505 55.1579L146.567 45.379L130.127 35.8873C129.794 35.6948 129.794 35.2137 130.127 35.0213L146.317 25.6754C146.471 25.5861 146.662 25.5861 146.817 25.6754L163.754 35.454L163.755 35.4548L163.756 35.4558L163.757 35.456L180.194 44.946Z" fill="#9189FF" stroke="#030121" stroke-width="1.5"/>
<path d="M163.754 55.3028L146.566 65.2275L146.563 65.2259L129.378 55.3043H129.376V55.3028L112.188 45.3796L94.9986 35.4564V35.4548L77.8105 25.5316L94.9986 15.6084L112.188 25.5316L129.376 35.4548L146.566 45.3796L163.754 55.3028Z" stroke="#030121" stroke-width="1.5" stroke-linecap="round" stroke-linejoin="round"/>
<path d="M77.06 104.489C77.3934 104.682 77.3934 105.163 77.06 105.355L60.6205 114.845L43.6824 124.626C43.5277 124.715 43.3371 124.715 43.1824 124.626L26.245 114.846L26.2436 114.845H26.2421L9.80469 105.355C9.47135 105.163 9.47135 104.682 9.80469 104.489L26.2421 94.9992L26.2428 94.998L26.2435 94.9968L43.1824 85.2183C43.3371 85.129 43.5277 85.129 43.6824 85.2183L60.6198 94.9968L60.6205 94.998L60.6212 94.9992L77.06 104.489Z" fill="#9189FF" stroke="#030121" stroke-width="1.5"/>
<path d="M112.187 85.0748L94.9977 94.998L77.8096 85.0748L60.6199 75.1516V75.1501L43.4318 65.2269L26.2422 55.3037V55.3021L43.4318 45.3789L52.0267 50.3413L60.6199 55.3021V55.3037L77.8096 65.2269L94.9977 75.1501V75.1516L112.184 85.0733L112.187 85.0748Z" stroke="#030121" stroke-width="1.5" stroke-linecap="round" stroke-linejoin="round"/>
<path d="M43.1824 124.626C43.3371 124.716 43.4324 124.881 43.4324 125.059V163.601C43.4324 163.986 43.0158 164.226 42.6824 164.034L26.245 154.544H26.2436L26.2421 154.543L9.30466 144.763C9.14998 144.674 9.05469 144.509 9.05469 144.33V105.789C9.05469 105.404 9.47135 105.163 9.80468 105.356L26.2421 114.846H26.2436H26.245L43.1824 124.626Z" fill="#1102E3" stroke="#030121" stroke-width="1.5"/>
<path d="M112.188 85.0742V164.466L94.998 174.391V94.9974L112.188 85.0742Z" stroke="#030121" stroke-width="1.5" stroke-linecap="round" stroke-linejoin="round"/>
<path d="M137.97 70.1875V149.583L133.909 151.928L129.378 154.543L127.512 155.62L120.799 159.496V80.1044L129.378 75.1499L137.97 70.1875Z" stroke="#030121" stroke-width="1.5" stroke-linecap="round" stroke-linejoin="round"/>
<path d="M163.754 55.3018V134.695L146.566 144.618V65.2265L163.754 55.3018Z" stroke="#030121" stroke-width="1.5" stroke-linecap="round" stroke-linejoin="round"/>
<path d="M26.2422 94.9981V55.3037L43.4318 65.2269L60.6199 75.1501V75.1517L77.8096 85.0749L94.9977 94.9981V174.392L77.8096 164.468V164.467L60.6199 154.544" stroke="#030121" stroke-width="1.5" stroke-linecap="round" stroke-linejoin="round"/>
<path d="M137.968 70.1879L129.375 75.1487L120.796 80.1032L112.19 75.1376L103.606 70.1847L95.0003 65.2192L86.4102 60.2631L77.8122 55.3023L69.2158 50.3415L60.6225 45.3839L52.0293 40.4262V40.4167L60.6225 35.4559V35.4543L65.1295 32.853L65.2054 32.8087L65.577 32.5952L69.219 30.4951L77.8122 35.4559L137.968 70.1879Z" stroke="#030121" stroke-width="1.5" stroke-linecap="round" stroke-linejoin="round"/>
<path d="M120.799 80.1043V159.496L120.796 159.499H120.794L112.19 154.531V85.0715L112.187 85.073L95.0003 75.1514V75.1498L77.8122 65.2266L60.6225 55.3035V55.3019L52.0293 50.3411V40.4258L60.6225 45.3834L69.2158 50.3411L77.8122 55.3019L86.4102 60.2627L95.0003 65.2187L103.606 70.1843L112.19 75.1372L120.796 80.1027L120.799 80.1043Z" stroke="#030121" stroke-width="1.5" stroke-linecap="round" stroke-linejoin="round"/>
<path d="M77.0633 105.356C77.3966 105.163 77.8133 105.404 77.8133 105.789V144.33C77.8133 144.509 77.718 144.674 77.5633 144.763L60.6236 154.544L44.1855 164.034C43.8522 164.226 43.4355 163.986 43.4355 163.601V125.059C43.4355 124.881 43.5308 124.716 43.6855 124.626L60.6236 114.846L77.0633 105.356Z" fill="#0B00A4" stroke="#030121" stroke-width="1.5"/>
</svg>
