
<svg width="923" height="832" viewBox="0 0 923 832" fill="none" xmlns="http://www.w3.org/2000/svg">
<g clip-path="url(#clip0_68_89)">
<rect x="101" y="-7" width="41" height="142" fill="#1102E3"/>
<rect x="151" y="135" width="41" height="142" fill="#1102E3"/>
<path d="M203.5 276H244.5V418H203.5V276Z" fill="#1102E3"/>
<path d="M264 419H305V561H264V419Z" fill="#1102E3"/>
<path d="M323 561H364V703H323V561Z" fill="#1102E3"/>
<path d="M397 695H438V837H397V695Z" fill="#1102E3"/>
<rect x="197" y="-7" width="72" height="141" fill="#1102E3"/>
<rect x="341" y="-7" width="94" height="141" fill="#1102E3"/>
<rect x="435" y="134" width="94" height="141" fill="#1102E3"/>
<rect x="529" y="275" width="94" height="141" fill="#1102E3"/>
<rect x="623" y="414" width="94" height="141" fill="#1102E3"/>
<rect x="717" y="555" width="94" height="141" fill="#1102E3"/>
<rect x="811" y="696" width="94" height="141" fill="#1102E3"/>
<rect x="269" y="134" width="72" height="141" fill="#1102E3"/>
<rect x="341" y="275" width="72" height="141" fill="#1102E3"/>
<rect x="413" y="416" width="72" height="141" fill="#1102E3"/>
<rect x="485" y="557" width="72" height="141" fill="#1102E3"/>
<rect x="557" y="698" width="72" height="141" fill="#1102E3"/>
</g>
<defs>
<clipPath id="clip0_68_89">
<rect width="923" height="832" fill="white"/>
</clipPath>
</defs>
</svg>
