<svg width="1659" height="670" viewBox="0 0 1659 670" fill="none" xmlns="http://www.w3.org/2000/svg">
<g clip-path="url(#clip0_94_2)">
<rect width="1659" height="670" fill="#030121"/>
<g filter="url(#filter0_f_94_2)">
<ellipse cx="-81.5" cy="275" rx="598.5" ry="331" fill="#393663"/>
<ellipse cx="1585.5" cy="684" rx="598.5" ry="331" fill="#393663"/>
</g>
<path d="M1278.51 560.375C1281.48 588.038 1303.5 610.588 1331.1 614.158C1341.83 615.548 1352.12 614.135 1361.32 610.565C1368.34 607.841 1375.87 613.238 1375.87 620.767V674.153C1375.87 688.548 1364.2 700.216 1349.81 700.216H1108.77C1094.38 700.216 1082.71 688.546 1082.71 674.153V620.767C1082.71 613.238 1090.24 607.84 1097.26 610.565C1106.46 614.135 1116.75 615.548 1127.48 614.158C1155.08 610.588 1177.1 588.038 1180.07 560.375C1184.01 523.601 1155.32 492.536 1119.35 492.536C1111.59 492.536 1104.16 493.989 1097.33 496.629C1090.28 499.356 1082.71 494.021 1082.71 486.459V433.121C1082.71 418.726 1094.38 407.058 1108.77 407.058H1154.23C1162.4 407.058 1167.51 398.426 1163.82 391.125C1158.82 381.217 1156 370.033 1156 358.171C1156 314.93 1193.46 280.429 1237.68 285.342C1271.55 289.116 1298.7 316.532 1302.17 350.435C1303.69 365.255 1300.79 379.263 1294.65 391.369C1290.99 398.563 1296.28 407.059 1304.34 407.059H1349.81C1364.2 407.059 1375.87 418.729 1375.87 433.123V486.461C1375.87 494.023 1368.3 499.358 1361.25 496.631C1354.42 493.989 1346.99 492.537 1339.22 492.537C1303.25 492.537 1274.57 523.603 1278.51 560.377L1278.51 560.375Z" fill="#C7C7FF"/>
<path d="M1349.8 702.663H1108.77C1093.05 702.663 1080.27 689.874 1080.27 674.156V620.77C1080.27 616.351 1082.45 612.218 1086.11 609.715C1089.72 607.242 1094.11 606.724 1098.15 608.289C1107.38 611.875 1117.14 613.034 1127.17 611.736C1153.57 608.32 1174.79 586.611 1177.63 560.116C1179.45 543.198 1174.25 526.977 1162.99 514.439C1151.88 502.073 1135.97 494.981 1119.35 494.981C1112.06 494.981 1104.95 496.303 1098.21 498.91C1094.19 500.465 1089.65 499.929 1086.08 497.476C1082.44 494.984 1080.27 490.866 1080.27 486.461V433.121C1080.27 417.403 1093.06 404.614 1108.77 404.614H1154.24C1157.2 404.614 1159.78 403.176 1161.32 400.667C1162.9 398.107 1163.01 394.951 1161.64 392.226C1156.28 381.587 1153.56 370.129 1153.56 358.169C1153.56 336.654 1162.76 316.079 1178.81 301.716C1195.07 287.158 1216.07 280.483 1237.95 282.913C1272.98 286.815 1301.01 315.106 1304.61 350.184C1306.11 364.848 1303.42 379.471 1296.83 392.47C1295.51 395.067 1295.63 398.098 1297.16 400.586C1298.7 403.107 1301.39 404.613 1304.34 404.613H1349.81C1365.52 404.613 1378.31 417.402 1378.31 433.119V486.458C1378.31 490.863 1376.14 494.981 1372.5 497.473C1368.93 499.926 1364.39 500.46 1360.37 498.905C1353.63 496.297 1346.51 494.976 1339.23 494.976C1322.61 494.976 1306.7 502.068 1295.59 514.434C1284.33 526.972 1279.13 543.193 1280.94 560.111C1283.79 586.606 1305.01 608.315 1331.41 611.731C1341.43 613.029 1351.2 611.87 1360.43 608.284C1364.47 606.717 1368.86 607.235 1372.47 609.71C1376.13 612.213 1378.31 616.346 1378.31 620.765V674.151C1378.31 689.869 1365.53 702.658 1349.81 702.658L1349.8 702.663ZM1093.47 612.293C1091.86 612.293 1090.27 612.784 1088.87 613.746C1086.54 615.339 1085.15 617.964 1085.15 620.769V674.154C1085.15 687.178 1095.75 697.774 1108.77 697.774H1349.81C1362.83 697.774 1373.43 687.178 1373.43 674.154V620.769C1373.43 617.964 1372.04 615.338 1369.71 613.745C1367.45 612.197 1364.72 611.866 1362.2 612.844C1352.34 616.673 1341.47 617.964 1330.78 616.582C1302.17 612.88 1279.17 589.349 1276.09 560.636C1274.12 542.32 1279.76 524.753 1291.96 511.171C1303.99 497.774 1321.22 490.092 1339.23 490.092C1347.12 490.092 1354.83 491.524 1362.13 494.35C1364.68 495.336 1367.46 495.007 1369.74 493.445C1372.05 491.863 1373.43 489.252 1373.43 486.46V433.121C1373.43 420.097 1362.83 409.501 1349.81 409.501H1304.34C1299.68 409.501 1295.43 407.124 1292.99 403.142C1290.57 399.193 1290.38 394.378 1292.48 390.258C1298.64 378.101 1301.15 364.413 1299.74 350.683C1296.38 317.877 1270.17 291.418 1237.41 287.769C1216.92 285.494 1197.28 291.741 1182.07 305.357C1167.05 318.793 1158.44 338.042 1158.44 358.168C1158.44 369.357 1160.99 380.074 1166 390.022C1168.15 394.27 1167.96 399.208 1165.49 403.225C1163.07 407.154 1158.87 409.5 1154.24 409.5H1108.78C1095.75 409.5 1085.16 420.096 1085.16 433.119V486.46C1085.16 489.252 1086.53 491.861 1088.84 493.445C1091.12 495.007 1093.9 495.339 1096.45 494.35C1103.76 491.524 1111.46 490.092 1119.36 490.092C1137.36 490.092 1154.59 497.774 1166.62 511.171C1178.83 524.753 1184.46 542.321 1182.5 560.636C1179.42 589.349 1156.41 612.878 1127.8 616.581C1117.11 617.962 1106.24 616.67 1096.38 612.842C1095.43 612.472 1094.45 612.292 1093.47 612.292L1093.47 612.293Z" fill="#131E0D"/>
<path d="M1569.44 572.802C1572.54 600.949 1595.39 623.645 1623.55 626.584C1634.5 627.725 1644.93 625.978 1654.18 622.011C1661.27 618.97 1669.14 624.334 1669.14 632.05V674.183C1669.14 688.578 1657.47 700.247 1643.07 700.247H1402.04C1387.64 700.247 1375.98 688.578 1375.98 674.183V619.83C1375.98 612.12 1368.11 606.743 1361.03 609.784C1351.71 613.787 1341.2 615.538 1330.19 614.347C1302.04 611.306 1279.28 588.547 1276.26 560.396C1272.31 523.625 1301 492.563 1336.97 492.563C1345.61 492.563 1353.83 494.361 1361.29 497.604C1368.24 500.626 1375.98 495.251 1375.98 487.674V433.15C1375.98 418.755 1387.64 407.087 1402.04 407.087H1425.09C1433.77 407.087 1438.77 397.531 1434.12 390.209C1427.34 379.525 1423.84 366.552 1425.08 352.696C1427.58 324.72 1449.94 301.82 1477.85 298.706C1514 294.672 1544.62 322.84 1544.62 358.202C1544.62 370.031 1541.19 381.049 1535.26 390.331C1530.63 397.591 1535.74 407.09 1544.35 407.09H1643.07C1657.46 407.09 1669.13 418.758 1669.13 433.153V499.908C1669.13 507.474 1661.4 512.843 1654.47 509.823C1647.01 506.58 1638.78 504.782 1630.13 504.782C1594.1 504.782 1565.37 535.952 1569.43 572.805L1569.44 572.802Z" fill="#FF504B"/>
<path d="M1643.07 702.691H1402.04C1386.32 702.691 1373.53 689.902 1373.53 674.185V619.83C1373.53 616.971 1372.1 614.321 1369.71 612.742C1367.36 611.195 1364.55 610.934 1362 612.03C1352 616.323 1340.92 617.963 1329.93 616.777C1300.57 613.607 1276.97 590.005 1273.83 560.658C1271.87 542.343 1277.5 524.777 1289.71 511.196C1301.74 497.803 1318.97 490.121 1336.97 490.121C1345.75 490.121 1354.26 491.885 1362.26 495.364C1364.72 496.431 1367.44 496.185 1369.73 494.685C1372.11 493.125 1373.53 490.504 1373.53 487.676V433.151C1373.53 417.433 1386.32 404.644 1402.04 404.644H1425.09C1428.18 404.644 1430.91 403.043 1432.38 400.36C1433.92 397.567 1433.8 394.261 1432.06 391.52C1424.66 379.87 1421.41 366.369 1422.65 352.479C1425.27 323.174 1448.37 299.538 1477.59 296.278C1495.6 294.266 1512.9 299.758 1526.29 311.739C1539.5 323.553 1547.07 340.488 1547.07 358.201C1547.07 370.093 1543.7 381.658 1537.33 391.644C1535.62 394.315 1535.51 397.554 1537.02 400.31C1538.5 403.024 1541.25 404.644 1544.36 404.644H1643.08C1658.8 404.644 1671.58 417.433 1671.58 433.151V499.906C1671.58 504.382 1669.34 508.525 1665.58 510.989C1661.95 513.372 1657.43 513.775 1653.5 512.063C1646.12 508.852 1638.26 507.225 1630.13 507.225C1613.48 507.225 1597.56 514.34 1586.44 526.746C1575.18 539.323 1570 555.585 1571.87 572.536C1574.86 599.618 1596.7 621.327 1623.81 624.156C1633.9 625.205 1644.07 623.69 1653.22 619.768C1657.26 618.038 1661.87 618.456 1665.57 620.892C1669.33 623.376 1671.58 627.548 1671.58 632.052V674.185C1671.58 689.902 1658.8 702.691 1643.08 702.691H1643.07ZM1365.18 606.487C1367.7 606.487 1370.21 607.222 1372.4 608.662C1376.17 611.147 1378.42 615.322 1378.42 619.83V674.185C1378.42 687.208 1389.02 697.805 1402.04 697.805H1643.07C1656.1 697.805 1666.69 687.208 1666.69 674.185V632.052C1666.69 629.196 1665.27 626.549 1662.87 624.972C1660.52 623.421 1657.7 623.162 1655.14 624.259C1645.23 628.51 1634.21 630.157 1623.3 629.017C1593.92 625.951 1570.25 602.419 1567.01 573.072C1564.99 554.72 1570.59 537.111 1582.8 523.485C1594.84 510.046 1612.09 502.338 1630.13 502.338C1638.93 502.338 1647.45 504.102 1655.44 507.581C1657.89 508.648 1660.61 508.399 1662.9 506.902C1665.27 505.343 1666.69 502.729 1666.69 499.906V433.151C1666.69 420.128 1656.1 409.531 1643.07 409.531H1544.35C1539.43 409.531 1535.09 406.962 1532.73 402.659C1530.35 398.314 1530.52 393.212 1533.2 389.015C1539.07 379.816 1542.18 369.161 1542.18 358.201C1542.18 341.878 1535.2 326.269 1523.03 315.379C1510.69 304.34 1494.74 299.28 1478.12 301.132C1451.21 304.136 1429.93 325.912 1427.52 352.914C1426.37 365.722 1429.37 378.166 1436.18 388.899C1438.89 393.168 1439.07 398.332 1436.67 402.713C1434.32 406.982 1429.99 409.531 1425.09 409.531H1402.04C1389.02 409.531 1378.42 420.128 1378.42 433.151V487.676C1378.42 492.157 1376.17 496.304 1372.41 498.772C1368.77 501.157 1364.25 501.561 1360.31 499.847C1352.93 496.637 1345.08 495.009 1336.97 495.009C1320.35 495.009 1304.45 502.1 1293.34 514.464C1282.08 527 1276.88 543.22 1278.69 560.138C1281.59 587.216 1303.36 608.994 1330.45 611.919C1340.6 613.011 1350.85 611.502 1360.07 607.541C1361.71 606.835 1363.45 606.488 1365.18 606.488L1365.18 606.487Z" fill="#131E0D"/>
<path d="M1374.04 115.295L1382.86 206.779C1382.97 207.926 1384.2 208.599 1385.23 208.069L1434.77 182.468C1436.36 181.643 1437.92 183.633 1436.74 184.987L1399.98 227.09C1399.24 227.931 1399.55 229.244 1400.58 229.669L1474.52 260.043C1476.27 260.764 1475.58 263.402 1473.69 263.165L1395.11 253.374C1393.97 253.232 1393.04 254.284 1393.33 255.397L1407.27 309.402C1407.72 311.143 1405.43 312.221 1404.37 310.767L1371.57 265.648C1370.9 264.719 1369.5 264.762 1368.88 265.729L1326.33 332.368C1325.31 333.97 1322.84 332.821 1323.41 331.008L1347.1 254.885C1347.44 253.818 1346.62 252.742 1345.5 252.773L1289.63 254.348C1287.84 254.398 1287.29 251.929 1288.95 251.222L1340.41 229.211C1341.41 228.781 1341.72 227.499 1341.01 226.662L1304.9 183.905C1303.74 182.532 1305.33 180.567 1306.91 181.419L1356.08 207.857C1357.08 208.397 1358.31 207.768 1358.46 206.641L1370.8 115.233C1371.06 113.316 1373.85 113.368 1374.04 115.295H1374.04Z" fill="#3526EB"/>
<path d="M1324.99 335.573C1324.4 335.573 1323.81 335.446 1323.25 335.184C1321.38 334.312 1320.46 332.25 1321.08 330.279L1344.44 255.246L1289.71 256.789C1287.78 256.805 1286.04 255.531 1285.61 253.593C1285.19 251.654 1286.17 249.755 1287.99 248.975L1338.44 227.396L1303.03 185.479C1301.75 183.965 1301.73 181.829 1302.98 180.286C1304.23 178.744 1306.33 178.325 1308.07 179.265L1356.2 205.144L1368.38 114.903C1368.66 112.846 1370.35 111.375 1372.41 111.375C1372.44 111.375 1372.47 111.375 1372.5 111.375C1374.6 111.416 1376.27 112.965 1376.47 115.058L1385.18 205.343L1433.65 180.295C1435.41 179.384 1437.5 179.838 1438.72 181.399C1439.95 182.959 1439.89 185.095 1438.59 186.59L1402.57 227.837L1475.45 257.777C1477.36 258.563 1478.37 260.583 1477.84 262.58C1477.32 264.577 1475.46 265.841 1473.4 265.587L1396 255.943L1409.64 308.788C1410.14 310.71 1409.23 312.644 1407.43 313.489C1405.64 314.336 1403.57 313.804 1402.4 312.199L1370.3 268.048L1328.4 333.68C1327.62 334.896 1326.33 335.572 1324.99 335.572L1324.99 335.573ZM1345.55 250.328C1346.82 250.328 1348.03 250.926 1348.8 251.943C1349.59 252.988 1349.83 254.36 1349.44 255.613L1327.55 325.928L1366.82 264.415C1367.55 263.28 1368.79 262.578 1370.13 262.537C1371.4 262.482 1372.76 263.122 1373.55 264.213L1403.83 305.871L1390.97 256.01C1390.63 254.704 1390.96 253.319 1391.85 252.304C1392.74 251.289 1394.08 250.781 1395.41 250.951L1467.96 259.99L1399.66 231.931C1398.45 231.432 1397.54 230.374 1397.24 229.098C1396.94 227.823 1397.28 226.472 1398.14 225.485L1432.09 186.607L1386.35 210.243C1385.15 210.864 1383.72 210.847 1382.54 210.202C1381.35 209.555 1380.56 208.365 1380.43 207.018L1372.28 122.54L1360.89 206.969C1360.71 208.293 1359.89 209.446 1358.7 210.052C1357.51 210.658 1356.1 210.644 1354.92 210.012L1309.53 185.602L1342.88 225.088C1343.71 226.07 1344.03 227.402 1343.73 228.653C1343.44 229.904 1342.56 230.953 1341.38 231.458L1293.85 251.786L1345.44 250.332C1345.48 250.332 1345.52 250.332 1345.55 250.332L1345.55 250.328Z" fill="white"/>
<path d="M1091.37 349.861L1096.7 404.275C1096.81 405.386 1097.97 406.06 1098.99 405.599L1117.69 397.12C1119.23 396.421 1120.68 398.243 1119.66 399.59L1107.16 416.032C1106.5 416.891 1106.85 418.137 1107.86 418.533L1140.32 431.346C1142.06 432.032 1141.46 434.625 1139.6 434.485L1104.81 431.877C1103.74 431.796 1102.88 432.768 1103.1 433.827L1107.23 454.062C1107.56 455.719 1105.46 456.73 1104.38 455.432L1090.9 439.305C1090.28 438.571 1089.17 438.522 1088.49 439.201L1064.24 463.582C1062.93 464.898 1060.79 463.35 1061.63 461.695L1075.67 434.021C1076.21 432.952 1075.45 431.683 1074.25 431.656L1054.04 431.188C1052.35 431.149 1051.83 428.878 1053.33 428.109L1071.91 418.627C1072.82 418.166 1073.08 416.998 1072.47 416.19L1059.84 399.586C1058.82 398.239 1060.27 396.418 1061.81 397.117L1080.51 405.596C1081.53 406.057 1082.7 405.382 1082.81 404.271L1088.13 349.858C1088.32 347.896 1091.18 347.896 1091.37 349.858L1091.37 349.861Z" fill="#3526EB"/>
<path d="M1063.1 466.531C1062.27 466.531 1061.44 466.269 1060.7 465.737C1059.04 464.537 1058.53 462.423 1059.45 460.595L1072.91 434.074L1053.98 433.636C1052.09 433.592 1050.53 432.319 1050.11 430.471C1049.68 428.622 1050.54 426.799 1052.23 425.937L1069.94 416.898L1057.9 401.07C1056.75 399.561 1056.78 397.551 1057.96 396.067C1059.14 394.583 1061.1 394.114 1062.82 394.896L1080.49 402.904L1085.7 349.624C1085.91 347.495 1087.61 345.949 1089.75 345.947C1091.89 345.947 1093.59 347.493 1093.8 349.622L1099.02 402.904L1116.68 394.894C1118.4 394.112 1120.36 394.581 1121.54 396.064C1122.72 397.548 1122.75 399.558 1121.6 401.068L1109.75 416.655L1141.21 429.075C1143.13 429.83 1144.15 431.762 1143.69 433.771C1143.23 435.781 1141.47 437.094 1139.41 436.923L1105.7 434.396L1109.62 453.574C1110 455.433 1109.1 457.234 1107.39 458.057C1105.69 458.88 1103.72 458.456 1102.5 457L1089.59 441.557L1065.97 465.306C1065.16 466.114 1064.13 466.528 1063.09 466.528L1063.1 466.531ZM1057.32 428.825L1074.31 429.218C1075.72 429.25 1076.99 429.992 1077.71 431.199C1078.43 432.406 1078.49 433.877 1077.85 435.131L1066.14 458.207L1086.76 437.482C1087.57 436.672 1088.66 436.224 1089.82 436.286C1090.96 436.335 1092.04 436.864 1092.77 437.741L1104.19 451.398L1100.7 434.321C1100.45 433.059 1100.79 431.78 1101.64 430.814C1102.49 429.85 1103.71 429.355 1105 429.446L1134.43 431.652L1106.96 420.808C1105.76 420.335 1104.88 419.355 1104.53 418.115C1104.19 416.875 1104.43 415.577 1105.21 414.554L1115.76 400.679L1100 407.825C1098.81 408.366 1097.41 408.297 1096.28 407.641C1095.15 406.984 1094.39 405.815 1094.27 404.512L1089.75 358.386L1085.24 404.513C1085.11 405.816 1084.36 406.986 1083.22 407.642C1082.09 408.297 1080.7 408.366 1079.51 407.826L1063.74 400.68L1074.42 414.717C1075.15 415.681 1075.41 416.909 1075.14 418.089C1074.87 419.268 1074.1 420.259 1073.02 420.808L1057.32 428.824L1057.32 428.825Z" fill="white"/>
</g>
<defs>
<filter id="filter0_f_94_2" x="-1118.2" y="-494.2" width="3740.4" height="1947.4" filterUnits="userSpaceOnUse" color-interpolation-filters="sRGB">
<feFlood flood-opacity="0" result="BackgroundImageFix"/>
<feBlend mode="normal" in="SourceGraphic" in2="BackgroundImageFix" result="shape"/>
<feGaussianBlur stdDeviation="219.1" result="effect1_foregroundBlur_94_2"/>
</filter>
<clipPath id="clip0_94_2">
<rect width="1659" height="670" fill="white"/>
</clipPath>
</defs>
</svg>
